<svg version="1.0" xmlns="http://www.w3.org/2000/svg"
 width="512.000000pt" height="512.000000pt" viewBox="0 0 512.000000 512.000000"
 preserveAspectRatio="xMidYMid meet">

<g transform="translate(0.000000,512.000000) scale(0.100000,-0.100000)"
fill="#000000" stroke="none">
<path d="M1412 5109 c-243 -29 -492 -123 -712 -270 -128 -85 -334 -291 -419
-419 -124 -186 -205 -380 -252 -600 -33 -152 -33 -448 0 -600 43 -204 89 -318
219 -553 101 -183 152 -365 152 -543 0 -88 30 -206 72 -287 42 -81 164 -203
245 -245 133 -70 286 -88 427 -52 118 30 188 72 308 187 69 66 129 113 168
133 109 55 150 60 530 60 364 0 481 9 638 49 179 46 359 128 517 234 124 84
333 294 414 417 374 563 374 1237 0 1800 -81 123 -290 333 -414 417 -177 119
-388 209 -603 255 -91 20 -134 21 -657 24 -308 1 -593 -2 -633 -7z m1248 -416
c232 -57 421 -162 586 -327 174 -174 287 -386 335 -631 18 -91 18 -339 0 -430
-48 -245 -161 -456 -335 -631 -166 -165 -356 -271 -586 -326 -75 -18 -134 -21
-515 -28 -393 -6 -437 -9 -507 -28 -183 -50 -312 -125 -450 -264 -68 -67 -97
-90 -130 -99 -88 -23 -182 12 -228 86 -19 30 -24 59 -32 168 -17 247 -64 416
-176 627 -143 271 -162 317 -199 481 -24 107 -24 356 1 469 51 236 161 437
330 606 179 178 404 296 636 334 41 6 82 13 90 15 8 2 258 2 555 1 508 -3 545
-4 625 -23z"/>
<path d="M1932 4309 c-48 -14 -109 -80 -123 -131 -23 -89 12 -182 88 -229 57
-36 154 -34 210 3 62 41 88 90 88 168 0 77 -26 127 -85 166 -43 29 -125 39
-178 23z"/>
<path d="M1932 3509 c-47 -14 -109 -80 -122 -129 -7 -27 -10 -127 -8 -284 l3
-243 27 -40 c41 -62 90 -88 168 -88 78 0 127 26 168 88 l27 41 0 265 c0 263 0
266 -24 304 -47 76 -151 113 -239 86z"/>
<path d="M4365 3224 c-71 -36 -114 -106 -115 -182 0 -58 20 -94 105 -183 227
-239 345 -496 361 -793 14 -245 -41 -458 -181 -702 -137 -238 -195 -430 -214
-706 -7 -104 -12 -133 -31 -163 -46 -74 -140 -109 -228 -86 -33 9 -62 32 -130
99 -138 139 -267 214 -450 264 -70 19 -114 22 -502 28 -346 6 -439 11 -500 25
-209 47 -395 141 -554 279 -32 28 -96 97 -142 152 -94 114 -129 137 -211 137
-106 0 -193 -88 -193 -194 0 -66 11 -90 84 -184 209 -266 519 -472 848 -560
166 -45 288 -55 661 -55 469 0 502 -10 695 -193 120 -115 190 -157 308 -187
141 -36 294 -18 427 52 81 42 203 164 245 245 42 81 72 199 72 287 0 178 51
360 152 543 131 235 176 350 219 553 29 138 33 426 7 565 -47 250 -150 491
-291 681 -72 96 -225 252 -269 275 -46 23 -131 25 -173 3z"/>
</g>
</svg>
